<svg xmlns="http://www.w3.org/2000/svg" version="1.1" xmlns:xlink="http://www.w3.org/1999/xlink" xmlns:svgjs="http://svgjs.dev/svgjs" width="100%" height="100%" viewBox="0 0 1000 600"><rect width="1000" height="600" x="0" y="0" fill="#ffffff"/><g><circle r="166.66666666666666" cx="411.8212534586588" cy="434.0434479069436" fill="#2e27de" transform="matrix(0.5098823735223661,0,0,0.5098823735223661,0,78.6888771943037)"/><path d="M280.0198874411252 466.85502338038106L280.0198874411252 401.23190095882137Q280.0198874411252 389.5295608836461 286.0810994800621 379.98765282234945Q292.142311518999 370.4157387608599 302.2843395841509 364.7446047244288Q312.3963616491101 359.043464687805 324.75883372852593 359.043464687805L324.75883372852593 359.043464687805L395.75303018458914 359.043464687805L395.75303018458914 381.1878928300597L324.75883372852593 381.1878928300597Q315.4569736687713 381.1878928300597 308.8556536263647 387.0390628676473Q302.2843395841509 392.89023290523494 302.2843395841509 401.1418829582431L302.2843395841509 401.1418829582431L302.2843395841509 466.9450413809593Q302.2843395841509 475.1666854337748 308.8556536263647 481.04786147155517Q315.4569736687713 486.8990315091428 324.75883372852593 486.8990315091428L324.75883372852593 486.8990315091428L359.86585395405166 486.8990315091428Q369.25773201438466 486.8990315091428 375.7990400564057 481.04786147155517Q382.3403480984267 475.1666854337748 382.3403480984267 466.9450413809593L382.3403480984267 466.9450413809593L382.3403480984267 447.32111725489625L341.6222058368554 447.32111725489625L341.6222058368554 425.1766891126415L404.6048002414525 425.1766891126415L404.6048002414525 466.85502338038106Q404.6048002414525 478.4373394547853 398.5735942027083 488.03925951646755Q392.5723941641569 497.64117957814983 382.40036009881226 503.34231961477366Q372.2283260334676 509.0434596513975 359.86585395405166 509.0434596513975L359.86585395405166 509.0434596513975L324.75883372852593 509.0434596513975Q312.3963616491101 509.0434596513975 302.2843395841509 503.34231961477366Q292.142311518999 497.64117957814983 286.0810994800621 488.03925951646755Q280.0198874411252 478.4373394547853 280.0198874411252 466.85502338038106L280.0198874411252 466.85502338038106ZM421.4681723497819 381.1878928300597L421.4681723497819 359.043464687805L543.6225991344959 359.043464687805L543.6225991344959 381.1878928300597L493.7526268141337 381.1878928300597L493.7526268141337 509.0434596513975L471.3681506703369 509.0434596513975L471.3681506703369 381.1878928300597L421.4681723497819 381.1878928300597Z " fill="#ffffff" transform="matrix(0.5098823735223661,0,0,0.5098823735223661,0,78.6888771943037)"/><path d="M661.8212485251095 466.85502338038106L661.8212485251095 401.23190095882137Q661.8212485251095 389.5295608836461 667.8824605640464 379.98765282234945Q673.9436726029833 370.4157387608599 684.0857006681351 364.7446047244288Q694.1977227330943 359.043464687805 706.5601948125102 359.043464687805L706.5601948125102 359.043464687805L777.5543912685733 359.043464687805L777.5543912685733 381.1878928300597L706.5601948125102 381.1878928300597Q697.2583347527556 381.1878928300597 690.657014710349 387.0390628676473Q684.0857006681351 392.89023290523494 684.0857006681351 401.1418829582431L684.0857006681351 401.1418829582431L684.0857006681351 466.9450413809593Q684.0857006681351 475.1666854337748 690.657014710349 481.04786147155517Q697.2583347527556 486.8990315091428 706.5601948125102 486.8990315091428L706.5601948125102 486.8990315091428L741.6672150380359 486.8990315091428Q751.059093098369 486.8990315091428 757.6004011403901 481.04786147155517Q764.1417091824111 475.1666854337748 764.1417091824111 466.9450413809593L764.1417091824111 466.9450413809593L764.1417091824111 447.32111725489625L723.4235669208397 447.32111725489625L723.4235669208397 425.1766891126415L786.4061613254368 425.1766891126415L786.4061613254368 466.85502338038106Q786.4061613254368 478.4373394547853 780.3749552866926 488.03925951646755Q774.3737552481413 497.64117957814983 764.2017211827966 503.34231961477366Q754.0296871174519 509.0434596513975 741.6672150380359 509.0434596513975L741.6672150380359 509.0434596513975L706.5601948125102 509.0434596513975Q694.1977227330943 509.0434596513975 684.0857006681351 503.34231961477366Q673.9436726029833 497.64117957814983 667.8824605640464 488.03925951646755Q661.8212485251095 478.4373394547853 661.8212485251095 466.85502338038106L661.8212485251095 466.85502338038106ZM811.7312254881236 478.227297453436L811.7312254881236 422.3261190943296Q811.7312254881236 412.93424103399667 818.5725935320723 406.36292699178284Q825.4439675762136 399.7616069493763 835.045887637896 399.7616069493763L835.045887637896 399.7616069493763L880.5949959305011 399.7616069493763Q889.3567479867862 399.7616069493763 896.4681700324696 404.0224589767478Q903.6095980783458 408.31331700431207 907.8704501057174 415.51475705057373Q912.1313021330888 422.74620309702823 912.1313021330888 431.5079551533133L912.1313021330888 431.5079551533133L912.1313021330888 434.5685671729745Q912.1313021330888 443.2102952284885 907.8704501057174 450.3517232743647Q903.6095980783458 457.4631453200481 896.4681700324696 461.72399734741964Q889.3567479867862 466.0148553749839 880.5949959305011 466.0148553749839L880.5949959305011 466.0148553749839L846.6282037123002 466.0148553749839L846.6282037123002 443.8404212325364L880.8050379318505 443.8404212325364Q884.6157999563305 443.8404212325364 887.3163399736787 441.10987521499555Q889.9868739908342 438.37932919745464 889.9868739908342 434.4485431722035L889.9868739908342 434.4485431722035L889.9868739908342 431.5079551533133Q889.9868739908342 427.4871511274838 887.3163399736787 424.75660510994294Q884.6157999563305 422.026059092402 880.8050379318505 422.026059092402L880.8050379318505 422.026059092402L833.9656716309568 422.026059092402L833.9656716309568 478.13727945285774Q833.9656716309568 481.70799347579583 836.39615764657 484.2585034921801Q838.8266436621833 486.77900750837176 842.3073396845431 486.77900750837176L842.3073396845431 486.77900750837176L904.4497660837429 486.77900750837176L904.4497660837429 509.0434596513975L842.3073396845431 509.0434596513975Q833.8756536303785 509.0434596513975 826.9142615856589 504.8726256246042Q819.9528695409391 500.70179159781105 815.8420475145314 493.68038755270584Q811.7312254881236 486.6889895077935 811.7312254881236 478.227297453436L811.7312254881236 478.227297453436ZM935.3559462822828 433.09827316352937L935.3559462822828 430.45774514656677Q935.3559462822828 421.906035091631 939.6167983096542 414.9446430469114Q943.9076563372186 407.98325100219176 951.019078382902 403.87242897578403Q958.1305004285854 399.7616069493763 966.8022344842922 399.7616069493763L966.8022344842922 399.7616069493763L1030.9250568962138 399.7616069493763L1030.9250568962138 422.026059092402L966.8022344842922 422.026059092402Q962.9914724598121 422.026059092402 960.2909324424639 424.4865511082081Q957.6203984253085 426.9770491242069 957.6203984253085 430.45774514656677L957.6203984253085 430.45774514656677L957.6203984253085 433.09827316352937Q957.6203984253085 436.66898718646746 960.2909324424639 439.2194972028518Q962.9914724598121 441.7400012190434 966.8022344842922 441.7400012190434L966.8022344842922 441.7400012190434L1006.6502027402736 441.7400012190434Q1015.3219367959804 441.7400012190434 1022.4333588416638 445.91083524583667Q1029.5447808873473 450.0816692726299 1033.7756269145261 457.0430613173495Q1038.0064729417045 464.00445336206917 1038.0064729417045 472.55616341700494L1038.0064729417045 472.55616341700494L1038.0064729417045 478.227297453436Q1038.0064729417045 486.6889895077935 1033.7756269145261 493.68038755270584Q1029.5447808873473 500.70179159781105 1022.4333588416638 504.8726256246042Q1015.3219367959804 509.0434596513975 1006.6502027402736 509.0434596513975L1006.6502027402736 509.0434596513975L940.3069363140877 509.0434596513975L940.3069363140877 486.77900750837176L1006.6502027402736 486.77900750837176Q1010.4609647647536 486.77900750837176 1013.1615047821018 484.2585034921801Q1015.8320387992572 481.70799347579583 1015.8320387992572 478.13727945285774L1015.8320387992572 478.13727945285774L1015.8320387992572 472.6461814175832Q1015.8320387992572 468.9554433938741 1013.1615047821018 466.43493937768244Q1010.4609647647536 463.8844293612981 1006.6502027402736 463.8844293612981L1006.6502027402736 463.8844293612981L966.8022344842922 463.8844293612981Q958.1305004285854 463.8844293612981 951.019078382902 459.7135953345049Q943.9076563372186 455.5727673079044 939.6167983096542 448.55136326279927Q935.3559462822828 441.5299592176941 935.3559462822828 433.09827316352937L935.3559462822828 433.09827316352937ZM1056.9702650635272 422.026059092402L1056.9702650635272 399.7616069493763L1071.2231151550868 399.7616069493763L1071.2231151550868 359.043464687805L1093.4875672981125 359.043464687805L1093.4875672981125 399.7616069493763L1127.1242935141931 399.7616069493763L1127.1242935141931 422.026059092402L1093.4875672981125 422.026059092402L1093.4875672981125 478.01725545208666Q1093.4875672981125 481.6179754752175 1096.2781253160388 484.19849149179464Q1099.068683333965 486.77900750837176 1102.9694633590238 486.77900750837176L1102.9694633590238 486.77900750837176L1127.1242935141931 486.77900750837176L1127.1242935141931 509.0434596513975L1102.6694033570961 509.0434596513975Q1093.9976693013891 509.0434596513975 1086.8862472557057 504.8726256246042Q1079.7748252100223 500.70179159781105 1075.4839671824584 493.68038755270584Q1071.2231151550868 486.6889895077935 1071.2231151550868 478.13727945285774L1071.2231151550868 478.13727945285774L1071.2231151550868 422.026059092402L1056.9702650635272 422.026059092402ZM1146.1180916362082 469.585569397922L1146.1180916362082 439.2194972028518Q1146.1180916362082 428.3573251330738 1151.459159670519 419.3855310754394Q1156.7702217046372 410.4137370178051 1165.7420157622714 405.0726689834943Q1174.7138098199057 399.7616069493763 1185.575981889684 399.7616069493763L1185.575981889684 399.7616069493763L1209.4007460427329 399.7616069493763Q1220.2929241127035 399.7616069493763 1229.2347121701455 405.0726689834943Q1238.2065062277798 410.4137370178051 1243.5475742620906 419.3855310754394Q1248.8586362962083 428.3573251330738 1248.8586362962083 439.2194972028518L1248.8586362962083 439.2194972028518L1248.8586362962083 469.585569397922Q1248.8586362962083 480.4477414677 1243.5475742620906 489.41953552533437Q1238.2065062277798 498.39132958296875 1229.2347121701455 503.70239161708673Q1220.2929241127035 509.0434596513975 1209.4007460427329 509.0434596513975L1209.4007460427329 509.0434596513975L1185.575981889684 509.0434596513975Q1174.7138098199057 509.0434596513975 1165.7420157622714 503.70239161708673Q1156.7702217046372 498.39132958296875 1151.459159670519 489.41953552533437Q1146.1180916362082 480.4477414677 1146.1180916362082 469.585569397922L1146.1180916362082 469.585569397922ZM1168.3825437792339 439.4295392042011L1168.3825437792339 469.3755273965727Q1168.3825437792339 476.5469614426416 1173.4535578118098 481.67798747560306Q1178.494565844193 486.77900750837176 1185.575981889684 486.77900750837176L1185.575981889684 486.77900750837176L1209.4007460427329 486.77900750837176Q1216.6021860889946 486.77900750837176 1221.613188121185 481.67798747560306Q1226.6241901533754 476.5469614426416 1226.6241901533754 469.3755273965727L1226.6241901533754 469.3755273965727L1226.6241901533754 439.4295392042011Q1226.6241901533754 432.2581051581322 1221.613188121185 427.1270791251707Q1216.6021860889946 422.026059092402 1209.4007460427329 422.026059092402L1209.4007460427329 422.026059092402L1185.575981889684 422.026059092402Q1178.494565844193 422.026059092402 1173.4535578118098 427.1270791251707Q1168.3825437792339 432.2581051581322 1168.3825437792339 439.4295392042011L1168.3825437792339 439.4295392042011ZM1273.1334904521486 509.0434596513975L1273.1334904521486 430.33772114579574Q1273.1334904521486 421.906035091631 1277.3943424795202 414.9446430469114Q1281.6852005070846 407.98325100219176 1288.796622552768 403.87242897578403Q1295.9080445984514 399.7616069493763 1304.5797786541584 399.7616069493763L1304.5797786541584 399.7616069493763L1328.944650810677 399.7616069493763L1328.944650810677 421.906035091631L1304.5797786541584 421.906035091631Q1300.769016629678 421.906035091631 1298.06847661233 424.4865511082081Q1295.3979425951748 427.06706712478524 1295.3979425951748 430.75780514849436L1295.3979425951748 430.75780514849436L1295.3979425951748 509.0434596513975L1273.1334904521486 509.0434596513975ZM1403.8396272917985 381.1878928300597L1403.8396272917985 359.043464687805L1525.9940540765124 359.043464687805L1525.9940540765124 381.1878928300597L1476.0940757559574 381.1878928300597L1476.0940757559574 509.0434596513975L1453.7396056123534 509.0434596513975L1453.7396056123534 381.1878928300597L1403.8396272917985 381.1878928300597ZM1544.987852198528 509.0434596513975L1544.987852198528 359.043464687805L1567.2222983413608 359.043464687805L1567.2222983413608 509.0434596513975L1544.987852198528 509.0434596513975ZM1594.6777885177335 467.57516738500726L1594.6777885177335 401.23190095882137Q1594.6777885177335 389.5295608836461 1600.4689465549354 379.98765282234945Q1606.2601045921378 370.4157387608599 1615.982048654591 364.7446047244288Q1625.6739867168512 359.043464687805 1637.4963507927978 359.043464687805L1637.4963507927978 359.043464687805L1716.0820652976286 359.043464687805L1716.0820652976286 381.1878928300597L1637.4963507927978 381.1878928300597Q1628.9446407378618 381.1878928300597 1622.9434406993105 387.0390628676473Q1616.9122346605664 392.89023290523494 1616.9122346605664 401.23190095882137L1616.9122346605664 401.23190095882137L1616.9122346605664 467.27510738307967Q1616.9122346605664 475.2867094345458 1622.9434406993105 481.04786147155517Q1628.9446407378618 486.77900750837176 1637.4963507927978 486.77900750837176L1637.4963507927978 486.77900750837176L1716.0820652976286 486.77900750837176L1716.0820652976286 509.0434596513975L1637.4963507927978 509.0434596513975Q1625.6739867168512 509.0434596513975 1615.982048654591 503.4623436155447Q1606.2601045921378 497.8512215794991 1600.4689465549354 488.4293375189734Q1594.6777885177335 478.9774474582549 1594.6777885177335 467.57516738500726L1594.6777885177335 467.57516738500726Z " fill="#2e27de" transform="matrix(0.5098823735223661,0,0,0.5098823735223661,0,78.6888771943037)"/></g></svg>